HIERARCHY
ROOT SpineBase
{
  OFFSET 0.000000 0.000000 0.000000
  CHANNELS 6 Xposition Yposition Zposition Zrotation Xrotation Yrotation
  JOINT SpineMid
  {
    OFFSET 0.000000 25.970268 0.000000
    CHANNELS 3 Zrotation Xrotation Yrotation
    JOINT SpineShoulder
    {
      OFFSET -0.051922 19.464203 -0.580715
      CHANNELS 3 Zrotation Xrotation Yrotation
      JOINT Neck
      {
        OFFSET -0.025950 6.508609 -0.504293
        CHANNELS 3 Zrotation Xrotation Yrotation
        JOINT Head
        {
          OFFSET 3.188109 11.665498 2.122503
          CHANNELS 3 Zrotation Xrotation Yrotation
          End Site
          {
            OFFSET 0 0 0
          }
        }
      }
      JOINT ShoulderLeft
      {
        OFFSET -11.967312 -1.771448 -9.414313
        CHANNELS 3 Zrotation Xrotation Yrotation
        JOINT ElbowLeft
        {
          OFFSET -1.298909 -21.473658 -5.602857
          CHANNELS 3 Zrotation Xrotation Yrotation
          JOINT WristLeft
          {
            OFFSET 11.966189 -11.766281 -11.285001
            CHANNELS 3 Zrotation Xrotation Yrotation
            JOINT HandLeft
            {
              OFFSET 2.474499 -2.634577 -2.731520
              CHANNELS 3 Zrotation Xrotation Yrotation
              JOINT HandTipLeft
              {
                OFFSET 2.632990 -2.922997 -5.353480
                CHANNELS 3 Zrotation Xrotation Yrotation
                End Site
                {
                  OFFSET 0 0 0
                }
              }
              JOINT ThumbLeft
              {
                OFFSET 3.021260 3.568721 -3.092698
                CHANNELS 3 Zrotation Xrotation Yrotation
                End Site
                {
                  OFFSET 0 0 0
                }
              }
            }
          }
        }
      }
      JOINT ShoulderRight
      {
        OFFSET 14.245643 -4.912570 4.811839
        CHANNELS 3 Zrotation Xrotation Yrotation
        JOINT ElbowRight
        {
          OFFSET 3.580871 -20.598199 1.076304
          CHANNELS 3 Zrotation Xrotation Yrotation
          JOINT WristRight
          {
            OFFSET -1.235012 -15.487152 -18.976420
            CHANNELS 3 Zrotation Xrotation Yrotation
            JOINT HandRight
            {
              OFFSET 0.225964 -0.997467 -2.714655
              CHANNELS 3 Zrotation Xrotation Yrotation
              JOINT HandTipRight
              {
                OFFSET -0.931931 -4.299281 -5.606762
                CHANNELS 3 Zrotation Xrotation Yrotation
                End Site
                {
                  OFFSET 0 0 0
                }
              }
              JOINT ThumbRight
              {
                OFFSET -2.555605 -0.282741 -2.658353
                CHANNELS 3 Zrotation Xrotation Yrotation
                End Site
                {
                  OFFSET 0 0 0
                }
              }
            }
          }
        }
      }
    }
  }
  JOINT HipLeft
  {
    OFFSET -5.738275 1.668058 -6.113408
    CHANNELS 3 Zrotation Xrotation Yrotation
    JOINT KneeLeft
    {
      OFFSET 15.601705 2.918743 -27.354227
      CHANNELS 3 Zrotation Xrotation Yrotation
      JOINT AnkleLeft
      {
        OFFSET 0.284105 -36.495959 -4.459710
        CHANNELS 3 Zrotation Xrotation Yrotation
        JOINT FootLeft
        {
          OFFSET 4.320407 -2.543597 -11.247999
          CHANNELS 3 Zrotation Xrotation Yrotation
          End Site
          {
            OFFSET 0 0 0
          }
        }
      }
    }
  }
  JOINT HipRight
  {
    OFFSET 5.521145 0.660302 -0.396940
    CHANNELS 3 Zrotation Xrotation Yrotation
    JOINT KneeRight
    {
      OFFSET 25.570963 -7.010714 -21.175978
      CHANNELS 3 Zrotation Xrotation Yrotation
      JOINT AnkleRight
      {
        OFFSET -3.626047 -28.369426 -2.738361
        CHANNELS 3 Zrotation Xrotation Yrotation
        JOINT FootRight
        {
          OFFSET -2.908225 -3.503132 -8.918613
          CHANNELS 3 Zrotation Xrotation Yrotation
          End Site
          {
            OFFSET 0 0 0
          }
        }
      }
    }
  }
}
MOTION
Frames: 13
Frame Time: 0.033333
12.764136 40.282907 371.394181 1.355752 0.247273 -28.582137 -0.104805 -0.176639 28.615474 -0.055129 0.027346 0.051880 -0.131719 -10.665916 2.751545 0.000000 0.000000 0.000000 27.711016 30.510145 -16.617979 25.201869 -10.169329 -1.022204 21.884429 -0.153611 -16.490972 -30.844565 -5.222817 -1.522247 0.000000 0.000000 0.000000 0.000000 0.000000 0.000000 0.605037 0.616279 0.130410 12.629962 1.124229 -17.788074 -15.935927 -24.449194 45.441145 24.321346 20.197868 -38.487453 0.000000 0.000000 0.000000 0.000000 0.000000 0.000000 0.459793 -6.772222 40.034946 9.660142 7.807335 -13.050161 -58.643615 -54.656150 -57.510701 0.000000 0.000000 0.000000 -2.187467 -2.149849 31.370589 3.525131 2.146723 -3.276725 -8.989040 3.281897 12.455280 0.000000 0.000000 0.000000
12.630597 40.336975 371.415271 1.117198 0.244613 -28.619225 0.069811 -0.116410 28.652034 -0.076418 0.042956 0.047427 -0.084601 -10.610867 2.749347 0.000000 0.000000 0.000000 27.814510 30.556653 -16.641977 25.799325 -10.653540 -1.342907 18.987272 2.239705 -14.731456 -28.320047 -6.960175 -3.448025 0.000000 0.000000 0.000000 0.000000 0.000000 0.000000 0.704671 0.984285 0.192745 10.727272 2.756270 -15.532289 -15.798365 -23.821301 44.125729 24.506903 15.431388 -40.775244 0.000000 0.000000 0.000000 0.000000 0.000000 0.000000 0.625269 -6.700365 39.722351 10.761496 9.407127 -13.017322 -95.352579 -56.679852 -91.279457 0.000000 0.000000 0.000000 -1.596157 -1.139539 31.203936 2.736956 1.699628 -3.042660 -8.587650 2.304926 12.375390 0.000000 0.000000 0.000000
12.465313 40.389822 371.382250 0.878203 0.319301 -28.586807 0.215208 -0.101828 28.617141 -0.061330 0.049064 0.043663 -0.059675 -10.600201 2.751800 0.000000 0.000000 0.000000 27.886960 30.543273 -16.619445 25.914644 -10.827063 -1.423367 17.860353 3.075520 -14.019025 -27.375749 -6.827723 -4.068812 0.000000 0.000000 0.000000 0.000000 0.000000 0.000000 1.690293 2.501121 0.472430 6.916848 1.211731 -12.136785 -17.981272 -15.177044 43.190053 20.933034 6.237154 -39.759535 0.000000 0.000000 0.000000 0.000000 0.000000 0.000000 0.868006 -6.559514 39.745442 11.505030 9.855785 -13.276906 -97.109635 -57.112410 -91.880862 0.000000 0.000000 0.000000 -0.494167 0.731622 30.445760 0.540445 0.512605 -2.213953 -8.138405 2.381977 12.497868 0.000000 0.000000 0.000000
12.253529 40.451094 371.307901 0.583665 0.486785 -28.540557 0.397420 -0.126128 28.567803 -0.065240 0.092822 0.036380 0.014028 -10.706965 2.771728 0.000000 0.000000 0.000000 27.912866 30.375005 -16.480217 26.443546 -10.652077 -1.653610 14.987069 2.317705 -12.371206 -25.412901 -6.508466 -4.657733 0.000000 0.000000 0.000000 0.000000 0.000000 0.000000 2.462002 3.379256 0.650815 6.215221 -2.573632 -12.054425 -18.376888 -9.839278 41.112514 18.994998 5.162779 -36.689373 0.000000 0.000000 0.000000 0.000000 0.000000 0.000000 1.090301 -6.697038 38.864373 11.268455 9.675758 -12.381207 -75.954779 -59.981460 -67.756547 0.000000 0.000000 0.000000 0.355590 1.663314 29.784527 -0.696193 -0.224102 -1.555182 -8.104244 2.956725 12.734466 0.000000 0.000000 0.000000
12.082397 40.496230 371.235434 0.368312 0.649762 -28.430988 -0.014551 -0.746744 28.428804 -0.000000 0.000000 0.000000 0.800445 -10.449847 2.843547 0.000000 0.000000 0.000000 28.741223 30.576614 -16.535267 26.490806 -10.448213 -1.694608 14.865297 3.255709 -12.186618 -23.799231 -6.983992 -6.414280 0.000000 0.000000 0.000000 0.000000 0.000000 0.000000 3.613450 4.246093 0.790554 4.767363 -3.542468 -10.833711 -20.368856 -3.820929 42.664005 17.793998 0.849330 -36.855489 0.000000 0.000000 0.000000 0.000000 0.000000 0.000000 1.328758 -6.671907 38.677779 11.928339 9.681474 -12.469442 -76.409829 -62.173194 -63.260265 0.000000 0.000000 0.000000 0.694114 1.583504 29.342607 -0.759303 -0.083278 -1.230031 -9.095549 3.662756 14.152698 0.000000 0.000000 0.000000
11.930391 40.512224 371.111385 0.160448 0.905801 -28.159777 0.286035 -0.874304 28.160691 -0.000000 0.000000 0.000000 0.819737 -10.484406 2.852015 0.000000 0.000000 0.000000 28.812450 30.498945 -16.551877 26.407779 -10.251262 -1.703078 14.955889 4.725204 -12.075390 -21.782795 -8.891048 -8.794747 0.000000 0.000000 0.000000 0.000000 0.000000 0.000000 3.669132 4.262536 0.793662 6.892041 -5.099528 -13.321250 -21.061457 -4.454617 42.333201 17.543084 3.883902 -34.520382 0.000000 0.000000 0.000000 0.000000 0.000000 0.000000 1.395135 -6.732364 37.002174 10.620761 9.022796 -10.730096 -50.872411 -58.513532 -36.311594 0.000000 0.000000 0.000000 0.389281 -0.057724 29.138528 0.910434 1.074073 -1.342012 -10.902418 4.582799 16.083543 0.000000 0.000000 0.000000
11.923659 40.515392 371.045623 0.196020 1.046003 -28.113256 0.320022 -1.014957 28.114301 -0.000000 0.000000 0.000000 0.799926 -10.565411 2.877393 0.000000 0.000000 0.000000 28.934133 30.482368 -16.612524 26.090313 -10.154579 -1.590091 15.908424 7.146248 -12.397180 -21.293960 -11.816601 -10.363855 0.000000 0.000000 0.000000 0.000000 0.000000 0.000000 3.589519 4.147920 0.776226 9.518641 -7.387759 -16.228686 -24.647880 -3.142319 46.739276 19.392604 3.076288 -36.790834 0.000000 0.000000 0.000000 0.000000 0.000000 0.000000 1.519379 -6.663628 37.699142 11.415318 8.780721 -11.648367 -73.018232 -64.302436 -54.728428 0.000000 0.000000 0.000000 0.185344 -0.790489 29.098613 1.372702 1.653802 -1.379232 -12.842685 5.762364 18.722566 0.000000 0.000000 0.000000
12.016255 40.492667 370.981407 0.356901 1.168879 -28.144974 0.236671 -1.199014 28.143809 0.270774 0.792791 0.022279 0.563339 -11.432831 2.881343 0.000000 0.000000 0.000000 28.546736 29.780800 -16.246773 25.639178 -10.120333 -1.415795 18.349258 7.072056 -13.871386 -21.976618 -12.909134 -10.475266 0.000000 0.000000 0.000000 0.000000 0.000000 0.000000 3.127351 3.074459 0.753995 10.036316 -7.596459 -16.590943 -23.331109 -4.351055 44.662909 17.952938 5.970259 -33.776433 0.000000 0.000000 0.000000 0.000000 0.000000 0.000000 1.496424 -6.728337 38.184990 11.403913 8.294243 -12.072568 -59.336312 -61.819463 -41.292995 0.000000 0.000000 0.000000 -0.474159 -2.223687 29.468414 2.658293 2.462873 -1.785260 -10.875998 4.276015 15.887700 0.000000 0.000000 0.000000
12.152565 40.440774 371.010981 0.533802 1.131144 -28.181619 0.063644 -1.249137 28.177043 0.289627 0.799943 0.023621 0.699119 -11.488177 2.883257 0.000000 0.000000 0.000000 28.618862 29.781578 -16.294982 25.056837 -10.168033 -1.209003 20.829656 6.367040 -15.403985 -23.614206 -13.779337 -9.623790 0.000000 0.000000 0.000000 0.000000 0.000000 0.000000 2.761536 2.529185 0.662694 12.459571 -7.197568 -19.043547 -23.001930 -9.609063 46.494060 18.898914 10.274857 -33.848224 0.000000 0.000000 0.000000 0.000000 0.000000 0.000000 1.295422 -6.717817 38.021786 10.135915 7.415846 -11.549603 -36.557062 -50.863152 -22.729497 0.000000 0.000000 0.000000 -0.622012 -2.042476 29.810467 2.488289 1.908772 -2.031046 -10.970607 4.938476 15.882606 0.000000 0.000000 0.000000
12.279197 40.406493 371.065611 0.739346 1.022598 -28.251297 0.198855 -0.519035 28.269741 -0.294477 0.276480 0.008664 0.514606 -11.500338 2.901193 0.000000 0.000000 0.000000 28.605712 29.830919 -16.361032 24.913006 -10.203235 -1.162788 21.380554 5.199234 -15.820668 -24.012253 -12.892200 -9.039405 0.000000 0.000000 0.000000 0.000000 0.000000 0.000000 2.180691 1.946239 0.539419 13.802045 -3.920652 -20.086612 -22.453253 -16.636313 51.459942 23.295868 13.498568 -39.250017 0.000000 0.000000 0.000000 0.000000 0.000000 0.000000 1.079211 -6.762590 38.129199 9.347801 7.006715 -11.398482 -31.068077 -45.900927 -20.621363 0.000000 0.000000 0.000000 -1.052423 -2.321298 30.299058 2.908957 1.690948 -2.432798 -11.328276 5.917292 15.829172 0.000000 0.000000 0.000000
12.378641 40.353853 371.080887 0.875897 0.996634 -28.285142 0.131414 -0.519387 28.304474 -0.332455 0.260642 0.009110 0.460123 -11.603111 2.931983 0.000000 0.000000 0.000000 28.532256 29.869901 -16.358201 25.239544 -10.426551 -1.305838 18.753630 2.569757 -14.516047 -22.950485 -10.919199 -8.292325 0.000000 0.000000 0.000000 0.000000 0.000000 0.000000 1.447428 1.079947 0.369349 14.880456 -1.586366 -20.587649 -18.572445 -23.425437 50.289841 25.980575 19.520329 -40.703542 0.000000 0.000000 0.000000 0.000000 0.000000 0.000000 1.090560 -7.085189 39.021489 9.611729 7.002030 -12.302119 -35.069102 -47.545365 -27.753700 0.000000 0.000000 0.000000 -0.978776 -1.784742 30.423169 2.400724 0.881612 -2.439299 -11.633609 7.160427 15.772575 0.000000 0.000000 0.000000
12.383753 40.317840 371.052352 0.829388 1.047227 -28.246197 0.182950 -0.519983 28.266168 -0.329261 0.219680 0.009263 0.499245 -11.654528 2.948488 0.000000 0.000000 0.000000 28.431873 29.936599 -16.327852 26.050619 -10.858369 -1.651253 16.238625 3.092465 -13.074949 -22.585878 -9.974905 -7.986884 0.000000 0.000000 0.000000 0.000000 0.000000 0.000000 1.269123 0.908004 0.330465 18.091581 -3.872729 -24.284538 -20.237559 -25.258539 57.735294 27.558361 17.973846 -43.863015 0.000000 0.000000 0.000000 0.000000 0.000000 0.000000 0.931395 -7.090926 37.456157 8.806159 8.291732 -10.639404 -49.052579 -55.702070 -41.164871 0.000000 0.000000 0.000000 -0.906418 -1.772076 30.406359 2.546316 0.530436 -2.433122 -12.589502 9.121094 15.902013 0.000000 0.000000 0.000000
12.404509 40.296288 371.058238 0.830658 1.017647 -28.212742 0.157820 -0.500732 28.232138 -0.733207 -0.501497 -0.026419 1.019283 -10.870495 2.948890 0.000000 0.000000 0.000000 28.958598 30.630895 -16.667178 26.242378 -10.925865 -1.686034 16.217589 3.174804 -13.071633 -22.282088 -8.867724 -8.193381 0.000000 0.000000 0.000000 0.000000 0.000000 0.000000 2.174620 2.412730 0.486272 18.845193 -7.535780 -25.723304 -18.130428 -27.785584 61.546193 29.704090 20.507707 -46.281811 0.000000 0.000000 0.000000 0.000000 0.000000 0.000000 0.811733 -6.342881 36.970445 8.252852 8.305377 -10.090963 -42.928335 -54.129775 -34.201472 0.000000 0.000000 0.000000 -0.372068 -0.526475 30.044370 1.014331 -0.468018 -1.993715 -13.478844 8.455662 19.203113 0.000000 0.000000 0.000000
